PathFileType	4	(X/Y/Z)	C:/Users/beibeiliu/ov580/test_trc/User3\out7_training_dense_left.trc
DataRate	CameraRate	NumFrames	NumMarkers	Units	OrigDataRate	OrigDataStartFrame	OrigNumFrames
120	120	13	19	mm	120	188	500
Frame#	Time	ThumbCMC			ThumbMCP			ThumbIP			ThumbTip			IndexMCP			IndexPIP			IndexTip			MiddleMCP			MiddlePIP			MiddleTip			RingMCP			RingPIP			RingTip			PinkyMCP			PinkyPIP			PinkyTip			BackHand1			BackHand2			BackHand3	
		X0	Y0	Z0	X1	Y1	Z1	X2	Y2	Z2	X3	Y3	Z3	X4	Y4	Z4	X5	Y5	Z5	X6	Y6	Z6	X7	Y7	Z7	X8	Y8	Z8	X9	Y9	Z9	X10	Y10	Z10	X11	Y11	Z11	X12	Y12	Z12	X13	Y13	Z13	X14	Y14	Z14	X15	Y15	Z15	X16	Y16	Z16	X17	Y17	Z17	X18	Y18	Z18	
187	1.55833	-163.103	44.9704	41.4545	-139.407	32.5233	20.7949	-126.059	17.1579	-5.49854	-139.136	1.45144	-24.5664	-166.103	56.0395	-36.8087	-146.956	37.4307	-52.9906	-142.707	15.4627	-23.1052	-179.12	47.8668	-45.6414	-164.657	20.9407	-57.7323	-160.565	4.20042	-23.9278	-193.341	32.5203	-41.8305	-178.367	7.08064	-47.7796	-174.058	-4.43369	-17.978	-212.08	14.5758	-32.1454	-193.481	-6.34537	-33.7169	-186.972	-7.72656	-3.82974	-216.47	49.4991	8.30126	-227.385	45.2133	37.4756	-197.104	63.1289	27.9595	
188	1.56667	-160.188	37.924	45.5696	-134.528	22.7729	25.2894	-124.13	5.86177	0.587534	-140.752	-11.7049	-15.5271	-160.593	42.6211	-32.3569	-141.039	20.8998	-46.5651	-140.151	0.905424	-16.8223	-179.421	31.6593	-39.6286	-158.28	6.27414	-51.1043	-157.093	-8.5944	-10.6868	-192.441	15.8389	-37.5546	-176.957	-11.13	-40.1485	-171.273	-15.2728	-6.68502	-205.172	1.86319	-28.1783	-191.695	-20.0596	-26.8841	-187.474	-21.5726	2.84201	-219.275	39.08	7.75171	-226.173	39.5665	42.1695	-194.13	55.3804	27.9696	
189	1.575	-158.72	30.49	48.3064	-137.49	14.5693	29.2119	-122.255	-3.77683	8.52202	-138.022	-23.1995	-10.5333	-156.165	33.8502	-26.4798	-136.864	8.28243	-41.1344	-134.056	-8.57543	-12.4412	-173.945	22.0462	-36.9006	-157.374	-6.04992	-47.1403	-157.915	-19.7004	-7.97709	-185.829	6.69322	-33.9472	-174.24	-24.2465	-32.617	-169.166	-24.9428	1.33968	-203.601	-8.65745	-24.2152	-186.985	-27.5122	-20.2187	-183.267	-27.6398	11.0548	-214.677	33.7883	15.0599	-225.428	34.4444	43.804	-189.436	47.2724	33.1509	
190	1.58333	-156.34	25.0056	52.6235	-133.687	6.454	32.1654	-123.387	-12.1856	9.87816	-138.76	-29.58	-6.10095	-156.456	25.6019	-22.6587	-141.05	0.734836	-38.0902	-136.264	-16.6115	-7.08779	-172.565	15.068	-34.7941	-153.378	-13.5992	-41.6136	-158.092	-26.5742	-5.71804	-191.012	-1.76389	-28.3927	-172.634	-27.3506	-30.2905	-172.682	-32.7937	4.56433	-204.76	-12.2793	-16.3011	-186.194	-34.7426	-14.5317	-182.403	-33.42	17.6899	-215.005	24.2964	12.6766	-224.633	27.4896	41.8606	-188.927	42.8879	38.7389	
191	1.59167	-160.504	18.8744	53.091	-136.458	2.51523	39.0233	-126.98	-16.0792	16.9517	-143.524	-32.9771	-0.525482	-156.944	19.4331	-21.4662	-139.106	-5.58653	-34.8257	-138.974	-23.1132	-6.9346	-173.515	10.0406	-31.6958	-158.8	-18.0735	-40.9648	-159.725	-31.0142	-0.581286	-186.084	-4.5056	-27.4617	-175.799	-33.966	-26.1377	-174.777	-36.7773	6.90927	-202.701	-17.1439	-13.8785	-188.586	-40.4968	-12.363	-184.475	-35.7598	19.6673	-216.521	21.6781	16.1316	-225.383	24.2011	44.0168	-193.675	35.9429	40.1557	
192	1.6	-159.977	14.787	59.4457	-136.938	-3.07619	39.6392	-131.201	-21.921	16.5883	-145.553	-41.9358	-0.0653514	-158.035	15.1105	-21.225	-145.006	-9.47042	-33.4695	-138.844	-26.3117	-1.94044	-176.875	5.58097	-27.3104	-162.272	-23.2084	-37.2433	-162.154	-36.4032	-0.0954845	-191.96	-11.1814	-24.5978	-178.097	-38.8888	-24.3641	-173.408	-38.6476	10.053	-209.627	-24.2227	-11.9538	-193.16	-46.8907	-9.58034	-189.243	-45.1988	22.5543	-218.198	16.852	22.2092	-225.294	21.0932	52.1784	-193.313	32.2181	42.5921	
193	1.60833	-163.852	11.9452	62.8773	-143.38	-8.12176	43.0243	-134.109	-27.438	17.826	-145.832	-45.631	2.99771	-160.557	10.3835	-20.1345	-144.282	-13.8005	-29.8979	-144.828	-33.0515	-1.52162	-176.505	-0.907126	-28.8428	-163.995	-27.7987	-35.1024	-166.35	-39.7898	3.00349	-195.03	-16.009	-24.0004	-180.068	-41.9412	-22.4342	-178.662	-45.7729	8.65777	-209.921	-25.0011	-8.11975	-195.355	-51.092	-7.31864	-191.967	-47.1805	26.7836	-221.018	11.3743	20.1228	-233.101	16.7822	50.7467	-194.688	29.1301	43.3421	
194	1.61667	-166.583	8.63389	58.8359	-142.348	-8.6997	42.688	-135.398	-27.8233	22.7922	-151.103	-44.1983	5.86266	-164.016	7.8544	-18.2941	-145.344	-18.1741	-27.9213	-142.223	-32.8092	-2.29363	-178.15	-1.60552	-26.3541	-163.228	-31.6735	-32.0495	-166.982	-41.8417	3.31841	-197.561	-15.4826	-20.1585	-183.19	-42.6775	-24.0026	-178.295	-45.0781	12.746	-212.359	-28.4734	-8.08358	-193.562	-51.1299	-4.32647	-190.829	-47.9209	25.6466	-223.473	10.0941	23.6987	-231.676	12.9582	52.8932	-199.448	26.8679	45.3988	
195	1.625	-167.634	9.06528	62.6753	-144.384	-7.60101	44.9387	-133.861	-26.6132	20.0103	-146.625	-45.4759	7.08744	-164.412	9.81167	-15.7175	-146.035	-18.7334	-28.0366	-143.961	-32.7757	-0.0229987	-179.865	-2.57469	-27.405	-165.975	-29.9137	-34.8543	-164.934	-40.222	7.3208	-199.359	-17.8399	-19.7991	-184.081	-44.0551	-23.5029	-178.72	-48.7064	9.94702	-210.303	-30.5996	-8.62591	-194.051	-50.4882	-7.35374	-188.993	-46.7685	24.93	-223.229	10.3574	22.928	-230.683	12.7799	50.3117	-199.249	26.6175	40.8143	
196	1.63333	-169.284	9.05089	61.0443	-144.16	-5.90263	46.2355	-131.75	-25.2818	23.5719	-147.963	-45.4779	3.23767	-163.313	10.6004	-15.8052	-147.67	-14.3237	-28.6934	-144.751	-32.8501	0.63551	-181.272	-1.10776	-24.2919	-164.366	-31.3639	-31.4016	-160.951	-39.1854	9.07031	-196.465	-17.1721	-20.7361	-176.711	-42.7902	-20.3716	-174.312	-46.2319	11.6782	-209.341	-29.439	-7.28757	-192.017	-51.1739	-5.8784	-189.459	-49.4213	25.3118	-224.551	8.23421	23.7757	-234.195	12.2973	52.299	-198.009	27.6412	46.3235	
197	1.64167	-164.915	11.7149	62.6251	-142.715	-5.46684	47.6325	-132.725	-24.7174	21.8952	-144.365	-44.4483	5.95887	-161.565	10.3516	-16.9208	-145.037	-16.7834	-25.8944	-141.024	-30.3307	1.23778	-181.35	-1.98873	-24.4186	-159.573	-25.9545	-32.1079	-159.491	-39.427	9.22707	-194.155	-16.2038	-19.1815	-176.295	-41.3668	-20.509	-176.161	-47.156	12.3506	-208.038	-29.2054	-7.28068	-191.202	-50.8761	-4.72903	-186.269	-51.7181	24.168	-221.374	8.77533	24.2191	-232.345	10.0175	56.183	-198.925	25.492	43.5514	
198	1.65	-163.419	11.6665	67.079	-142.204	-5.87475	47.1979	-129.308	-23.8063	26.9977	-143.425	-43.0868	8.0431	-161.703	9.73614	-12.568	-140.028	-14.0977	-24.8635	-140.235	-31.9042	3.3453	-177.626	-4.23882	-26.2238	-159.854	-31.4152	-29.0579	-157.734	-39.9012	9.70971	-195.109	-18.2567	-17.4044	-177.546	-45.4671	-17.8393	-171.527	-47.414	12.9105	-208.903	-30.1447	-5.08422	-190.219	-52.8109	-4.51544	-186.167	-53.1701	25.2803	-220.87	7.27403	22.7752	-229.246	9.78812	54.8013	-198.374	26.2739	47.6935	
199	1.65833	-164.343	8.68491	63.6914	-139.433	-6.41631	46.7482	-125.905	-26.7353	24.6702	-139.171	-44.184	13.165	-158.813	5.11795	-14.4497	-138.372	-17.9643	-21.6754	-134.376	-31.9419	9.05749	-171.134	-4.8422	-23.3674	-154.969	-31.0344	-27.4203	-155.537	-43.4256	9.85135	-187.894	-19.87	-15.6832	-170.774	-45.2856	-15.8225	-169.669	-48.2168	18.4709	-201.631	-36.5155	-7.33251	-184.581	-53.5444	-1.86316	-185.02	-53.8489	28.827	-214.133	6.30612	24.7789	-228.233	8.44473	54.4775	-192.172	27.331	44.7211	
